<svg width="40" height="40" xmlns="http://www.w3.org/2000/svg">
  <!-- Girl's dress -->
  <path d="M15 20 L25 20 L28 38 L12 38 Z" fill="#FF69B4"/>

  <!-- Girl's head -->
  <circle cx="20" cy="15" r="8" fill="#FFE4C4"/>

  <!-- Pigtails -->
  <path d="M12 13 Q10 15 12 17" stroke="#8B4513" stroke-width="2" fill="none"/>
  <path d="M28 13 Q30 15 28 17" stroke="#8B4513" stroke-width="2" fill="none"/>

  <!-- Horse graphic on dress -->
  <path d="M18 25 Q20 23 22 25 L23 28 L21 30 L19 30 L17 28 Z" fill="#8B4513"/>

  <!-- Face -->
  <circle cx="18" cy="14" r="1" fill="#000000"/> <!-- Left eye -->
  <circle cx="22" cy="14" r="1" fill="#000000"/> <!-- Right eye -->
  <path d="M19 16 Q20 17 21 16" fill="none" stroke="#000000" stroke-width="0.5"/> <!-- Smile -->
  <path d="M17 13 L19 13 M21 13 L23 13" stroke="#8B4513" stroke-width="0.5"/> <!-- Eyebrows -->

  <!-- Rosy cheeks -->
  <circle cx="17" cy="15" r="1" fill="#FFB6C1" opacity="0.5"/>
  <circle cx="23" cy="15" r="1" fill="#FFB6C1" opacity="0.5"/>

  <!-- Level indicator background -->
  <circle cx="30" cy="10" r="6" fill="#FFD700" opacity="0.8"/>
</svg>