<svg width="40" height="40" xmlns="http://www.w3.org/2000/svg">
  <!-- Baby head -->
  <circle cx="20" cy="18" r="12" fill="#FFE4E1"/>

  <!-- Baby body/onesie -->
  <path d="M13 30 L27 30 L25 38 L15 38 Z" fill="#B0E0E6"/>

  <!-- Eyes -->
  <circle cx="16" cy="16" r="2" fill="#4B0082"/>
  <circle cx="24" cy="16" r="2" fill="#4B0082"/>
  <!-- Cute eyelashes -->
  <path d="M15 14 L14 13 M16 13.5 L16 12 M17 14 L18 13" stroke="#4B0082" stroke-width="0.5"/>
  <path d="M23 14 L22 13 M24 13.5 L24 12 M25 14 L26 13" stroke="#4B0082" stroke-width="0.5"/>

  <!-- Rosy cheeks -->
  <circle cx="14" cy="19" r="2" fill="#FFB6C1" opacity="0.5"/>
  <circle cx="26" cy="19" r="2" fill="#FFB6C1" opacity="0.5"/>

  <!-- Cute smile -->
  <path d="M17 21 Q20 24 23 21" fill="none" stroke="#FF69B4" stroke-width="1"/>

  <!-- Hair -->
  <path d="M20 6 Q24 8 28 6 Q24 12 20 8 Q16 12 12 6 Q16 8 20 6" fill="#8B4513"/>

  <!-- Little bow -->
  <path d="M18 4 L22 4 L20 6 Z" fill="#FF69B4"/>
  <circle cx="20" cy="4" r="1" fill="#FF69B4"/>
</svg>